<svg width="30" height="31" viewBox="0 0 30 31" fill="none" xmlns="http://www.w3.org/2000/svg">
<path d="M21.8793 0.461853H8.12073C3.64288 0.461853 0 4.10474 0 8.58258V22.3414C0 26.819 3.64288 30.4619 8.12073 30.4619H21.8795C26.3571 30.4619 30 26.819 30 22.3414V8.58258C30 4.10474 26.3571 0.461853 21.8793 0.461853V0.461853ZM28.2413 22.3414C28.2413 25.8492 25.3873 28.7031 21.8793 28.7031H8.12073C4.61266 28.7031 1.75873 25.8492 1.75873 22.3414V8.58258C1.75873 5.07451 4.61266 2.22058 8.12073 2.22058H21.8795C25.3873 2.22058 28.2413 5.07451 28.2413 8.58258V22.3414Z" fill="white"/>
<path d="M14.9998 7.25896C10.4766 7.25896 6.79688 10.9387 6.79688 15.4619C6.79688 19.985 10.4766 23.6647 14.9998 23.6647C19.5229 23.6647 23.2027 19.985 23.2027 15.4619C23.2027 10.9387 19.5229 7.25896 14.9998 7.25896ZM14.9998 21.906C11.4466 21.906 8.5556 19.0152 8.5556 15.4619C8.5556 11.9087 11.4466 9.01768 14.9998 9.01768C18.5532 9.01768 21.4439 11.9087 21.4439 15.4619C21.4439 19.0152 18.5532 21.906 14.9998 21.906Z" fill="white"/>
<path d="M23.3985 4.34583C22.0618 4.34583 20.9746 5.43324 20.9746 6.76968C20.9746 8.10635 22.0618 9.19377 23.3985 9.19377C24.7351 9.19377 25.8226 8.10635 25.8226 6.76968C25.8226 5.43301 24.7351 4.34583 23.3985 4.34583ZM23.3985 7.43481C23.0318 7.43481 22.7333 7.13635 22.7333 6.76968C22.7333 6.40279 23.0318 6.10455 23.3985 6.10455C23.7654 6.10455 24.0638 6.40279 24.0638 6.76968C24.0638 7.13635 23.7654 7.43481 23.3985 7.43481Z" fill="white"/>
</svg>
