<svg width="30" height="26" viewBox="0 0 30 26" fill="none" xmlns="http://www.w3.org/2000/svg">
<path d="M29.5367 1.15674C29.1703 0.708587 28.6214 0.461853 27.9911 0.461853C27.6484 0.461853 27.2854 0.533951 26.9124 0.676544L1.51799 10.3704C0.170335 10.8846 -0.0111681 11.6564 0.000504847 12.0707C0.0121778 12.485 0.237168 13.2453 1.61183 13.6827C1.62007 13.6852 1.62831 13.6878 1.63655 13.69L6.90402 15.1975L9.75268 23.3433C10.1411 24.4539 11.0129 25.1437 12.0282 25.1437C12.6684 25.1437 13.2981 24.8755 13.8492 24.3683L17.1073 21.3683L21.833 25.1735C21.8335 25.1739 21.8342 25.1742 21.8346 25.1746L21.8795 25.2108C21.8836 25.214 21.888 25.2174 21.8921 25.2206C22.4174 25.628 22.9907 25.8432 23.5508 25.8434H23.551C24.6453 25.8434 25.5166 25.0334 25.7705 23.7801L29.9313 3.23475C30.0984 2.41009 29.9583 1.67218 29.5367 1.15674ZM8.66618 14.9111L18.8287 9.71941L12.5009 16.4433C12.3972 16.5534 12.3237 16.6882 12.2875 16.8349L11.0674 21.7773L8.66618 14.9111ZM12.6583 23.0751C12.6162 23.1138 12.5739 23.1483 12.5315 23.1802L13.6636 18.5952L15.7228 20.2534L12.6583 23.0751ZM28.2085 2.88571L24.0477 23.4312C24.0076 23.6278 23.8797 24.0854 23.5508 24.0854C23.3883 24.0854 23.1841 23.9968 22.9752 23.8359L17.6202 19.5242C17.6196 19.5235 17.6186 19.5229 17.6177 19.5224L14.4315 16.9566L23.5824 7.23308C23.8753 6.9218 23.9019 6.44504 23.6453 6.10309C23.3885 5.76114 22.9232 5.65357 22.5426 5.84812L7.49179 13.5372L2.15268 12.0096L27.5393 2.31877C27.7537 2.23683 27.9034 2.21966 27.9911 2.21966C28.0449 2.21966 28.1405 2.22607 28.176 2.26979C28.2227 2.32678 28.2822 2.5211 28.2085 2.88571Z" fill="white"/>
</svg>
