<svg width="18" height="31" viewBox="0 0 18 31" fill="none" xmlns="http://www.w3.org/2000/svg">
<path d="M11.0069 30.8434H6.19328C5.38925 30.8434 4.7352 30.1906 4.7352 29.3882V18.552H1.92683C1.1228 18.552 0.46875 17.899 0.46875 17.0968V12.4534C0.46875 11.651 1.1228 10.9982 1.92683 10.9982H4.7352V8.673C4.7352 6.36748 5.46057 4.40596 6.83265 3.00085C8.21092 1.58934 10.1371 0.843414 12.4028 0.843414L16.0739 0.849365C16.8766 0.850739 17.5295 1.50351 17.5295 2.3046V6.61581C17.5295 7.41827 16.8757 8.07104 16.0719 8.07104L13.6002 8.07196C12.8464 8.07196 12.6544 8.22279 12.6134 8.26903C12.5457 8.3457 12.4652 8.56245 12.4652 9.16098V10.998H15.8861C16.1437 10.998 16.3932 11.0614 16.6076 11.1809C17.0702 11.4388 17.3577 11.9266 17.3577 12.4537L17.3559 17.097C17.3559 17.899 16.7019 18.5518 15.8978 18.5518H12.4652V29.3882C12.4652 30.1906 11.8109 30.8434 11.0069 30.8434ZM6.49737 29.0847H10.7028V17.7646C10.7028 17.2288 11.1397 16.793 11.6763 16.793H15.5937L15.5953 12.7569H11.6761C11.1395 12.7569 10.7028 12.3212 10.7028 11.7853V9.16098C10.7028 8.47388 10.7728 7.69247 11.2924 7.10516C11.9203 6.39517 12.9099 6.31323 13.5997 6.31323L15.7673 6.31232V2.60764L12.4015 2.60214C8.76017 2.60214 6.49737 4.9285 6.49737 8.673V11.7853C6.49737 12.3209 6.06073 12.7569 5.52409 12.7569H2.23092V16.793H5.52409C6.06073 16.793 6.49737 17.2288 6.49737 17.7646V29.0847ZM16.0705 2.60809H16.0707H16.0705Z" fill="white"/>
</svg>
