<svg width="51" height="58" viewBox="0 0 51 58" fill="none" xmlns="http://www.w3.org/2000/svg">
<path d="M3.04358 46.5763V50.9966H1.37939V41.2305H3.04512V45.0599H3.46847L6.77374 41.2305H8.70887L4.80474 45.7675L9.15686 50.9966H7.12474L3.44846 46.5763H3.04358Z" fill="white"/>
<path d="M16.1657 48.544H12.2986L11.4534 50.9966H9.74609L13.3038 41.2305H15.2143L18.8198 50.9966H17.0232L16.1657 48.544ZM15.6962 47.158L14.2214 42.9572L12.7635 47.158H15.6962Z" fill="white"/>
<path d="M22.3578 50.9966H20.769V41.2305H22.561L27.1117 48.4442L27.0855 41.2305H28.662V50.9966H26.8485L22.3316 43.8428L22.3578 50.9966Z" fill="white"/>
<path d="M34.4001 49.6568C35.4223 49.6568 36.3106 49.2684 36.3106 48.3337C36.3106 46.1174 31.1964 47.4988 31.1964 43.9978C31.1964 42.1053 32.6836 41.0908 34.5433 41.0908C35.7133 41.0908 36.9264 41.4914 37.8224 42.1898L37.0865 43.3363C36.3891 42.8313 35.4208 42.5397 34.6356 42.5397C33.6642 42.5397 32.836 42.9817 32.836 43.8673C32.836 46.0576 37.9825 44.6133 37.9825 48.1894C37.9825 50.1694 36.4107 51.1348 34.4663 51.1348C33.1146 51.1348 31.9184 50.6667 30.9116 49.8624L31.6598 48.6867C32.4942 49.3191 33.4441 49.6568 34.4001 49.6568Z" fill="white"/>
<path d="M39.7124 46.1097C39.7124 43.2027 41.9062 41.0923 44.7373 41.0923C47.5684 41.0923 49.7329 43.2073 49.7329 46.0974C49.7329 48.9829 47.5776 51.1363 44.7203 51.1363C41.8538 51.1347 39.7124 48.9829 39.7124 46.1097ZM48.0364 46.1127C48.0364 44.0484 46.6339 42.5519 44.7188 42.5519C42.8006 42.5519 41.3935 44.0484 41.3935 46.1127C41.3935 48.1694 42.7929 49.6766 44.7188 49.6766C46.6432 49.6782 48.0364 48.1648 48.0364 46.1127Z" fill="white"/>
<path d="M2.4524 55.9452C2.49089 55.9682 2.52938 55.9897 2.56787 56.0096C2.60635 56.0296 2.64638 56.0495 2.68795 56.0695C2.63406 56.1938 2.55093 56.2905 2.43855 56.358C2.32617 56.4256 2.19069 56.4593 2.03367 56.4593C1.8674 56.4593 1.73193 56.4302 1.62878 56.3734C1.5241 56.3151 1.4425 56.2353 1.384 56.134C1.32396 56.0327 1.28394 55.9099 1.26238 55.7671C1.24083 55.6244 1.22852 55.4709 1.22852 55.3051C1.22852 55.1517 1.24237 55.0074 1.27008 54.8754C1.29779 54.7419 1.34398 54.6267 1.40864 54.5285C1.47175 54.4303 1.55643 54.3535 1.65957 54.2983C1.76272 54.2415 1.89049 54.2139 2.0429 54.2139C2.20301 54.2139 2.33694 54.2476 2.44625 54.3167C2.55401 54.3842 2.63714 54.4809 2.69256 54.6052L2.45702 54.7434C2.42469 54.6605 2.37235 54.5945 2.30154 54.5454C2.23072 54.4963 2.14605 54.4717 2.04752 54.4717C1.93206 54.4717 1.83815 54.4947 1.76733 54.5408C1.69652 54.5868 1.64264 54.6482 1.60569 54.725C1.56874 54.8017 1.54411 54.8907 1.53025 54.992C1.5164 55.0933 1.51024 55.1977 1.51024 55.3082C1.51024 55.4187 1.5164 55.5262 1.52718 55.6336C1.53795 55.741 1.56412 55.8362 1.60261 55.9206C1.6411 56.005 1.69498 56.0741 1.76426 56.1247C1.83353 56.1769 1.9259 56.203 2.03828 56.203C2.13835 56.203 2.22456 56.1785 2.29692 56.1293C2.36773 56.0802 2.42008 56.0188 2.4524 55.9452Z" fill="#44CCDF"/>
<path d="M4.14891 54.486V56.4337H3.86873V54.486H3.27295V54.2466H4.75085V54.486H4.14891Z" fill="#44CCDF"/>
<path d="M5.73767 54.4993C5.8054 54.3964 5.88546 54.3228 5.97782 54.2798C6.07019 54.2368 6.16872 54.2153 6.27494 54.2153C6.42581 54.2153 6.54589 54.246 6.63672 54.309C6.72755 54.3719 6.79529 54.4532 6.84147 54.5545C6.88766 54.6558 6.91691 54.7755 6.9323 54.9091C6.9477 55.0441 6.95386 55.1838 6.95386 55.3281C6.95386 55.4678 6.94616 55.6044 6.92922 55.7379C6.91229 55.873 6.87996 55.9927 6.82916 56.1001C6.77836 56.206 6.70754 56.292 6.61363 56.358C6.51972 56.4224 6.39656 56.4562 6.24262 56.4562C6.13023 56.4562 6.03479 56.4347 5.95473 56.3902C5.87468 56.3457 5.80232 56.2828 5.73767 56.1999H5.72843V57.3264H5.44824V54.2476H5.72843V54.4962C5.73151 54.4947 5.73459 54.4962 5.73767 54.4993ZM6.18873 56.1891C6.29804 56.1891 6.38425 56.1661 6.44737 56.1185C6.51049 56.0709 6.55821 56.0065 6.59208 55.9267C6.62441 55.8469 6.64596 55.7548 6.65674 55.6535C6.66751 55.5506 6.67213 55.4447 6.67213 55.3358C6.67213 55.2206 6.66751 55.1101 6.65674 55.0042C6.64596 54.8983 6.62441 54.8078 6.59208 54.728C6.55975 54.6482 6.51203 54.5868 6.45045 54.5407C6.38887 54.4947 6.30419 54.4716 6.19797 54.4716C6.08251 54.4716 5.99322 54.4993 5.9301 54.5545C5.86698 54.6098 5.81926 54.6788 5.79001 54.7633C5.76076 54.8477 5.74228 54.9398 5.73613 55.0411C5.72997 55.1424 5.72689 55.2375 5.72689 55.3296C5.72689 55.4186 5.72997 55.5138 5.73613 55.6151C5.74228 55.7164 5.76076 55.8085 5.79155 55.8929C5.82234 55.9773 5.86852 56.0479 5.92856 56.1047C5.99014 56.1615 6.07635 56.1891 6.18873 56.1891Z" fill="#44CCDF"/>
<path d="M8.60714 54.2153C8.75493 54.2153 8.87963 54.2445 8.97815 54.3013C9.07822 54.3596 9.15673 54.4333 9.21677 54.5254C9.27374 54.6021 9.31222 54.7142 9.33224 54.863C9.35225 55.0104 9.36303 55.17 9.36303 55.3419C9.36303 55.3956 9.36149 55.4539 9.35841 55.5169C9.35533 55.5813 9.35071 55.6443 9.34301 55.7072C9.33531 55.7717 9.32608 55.8315 9.31684 55.8868C9.30606 55.9436 9.29529 55.9896 9.28297 56.0295C9.22601 56.1891 9.13364 56.3012 9.00433 56.3672C8.87501 56.4316 8.7303 56.4654 8.57019 56.4654C8.41932 56.4654 8.29462 56.4378 8.19917 56.381C8.10219 56.3242 8.02829 56.2521 7.97441 56.163C7.91437 56.0832 7.87434 55.9727 7.85125 55.833C7.8297 55.6918 7.81738 55.5322 7.81738 55.3511C7.81738 55.2084 7.82354 55.0764 7.83586 54.9536C7.84817 54.8308 7.86973 54.728 7.90205 54.6451C7.95902 54.5054 8.04677 54.3995 8.16685 54.3258C8.29 54.2522 8.43626 54.2153 8.60714 54.2153ZM8.60098 54.4716C8.50707 54.4716 8.4224 54.4931 8.34851 54.5361C8.27461 54.5791 8.21765 54.6436 8.17608 54.728C8.14375 54.7863 8.1222 54.8738 8.1145 54.9858C8.10527 55.0994 8.10065 55.2314 8.10065 55.3803C8.10065 55.5307 8.10835 55.6565 8.1222 55.7578C8.1376 55.8591 8.16531 55.939 8.20687 55.9988C8.28693 56.1369 8.4147 56.206 8.59174 56.206C8.68873 56.206 8.77802 56.1815 8.85807 56.1339C8.93813 56.0848 8.99509 56.0096 9.0305 55.9067C9.05359 55.8484 9.06898 55.7655 9.07514 55.6611C9.0813 55.5568 9.08438 55.4432 9.08438 55.3189C9.08438 55.1869 9.07976 55.0702 9.06898 54.972C9.05821 54.8738 9.04127 54.797 9.01818 54.7448C8.98277 54.6543 8.92889 54.5852 8.85653 54.5392C8.78264 54.4947 8.69797 54.4716 8.60098 54.4716Z" fill="#44CCDF"/>
<path d="M11.6339 56.4335V54.7559H11.62L11.1751 55.4574L10.5608 56.4335H10.293V54.251H10.5732V55.9593H10.5778L11.0381 55.2271C11.1566 55.0384 11.2705 54.8557 11.3798 54.6807C11.4891 54.5058 11.5784 54.363 11.6508 54.251H11.914V56.4335H11.6339Z" fill="#44CCDF"/>
<path d="M13.5474 54.486V56.4337H13.2672V54.486H12.6714V54.2466H14.1493V54.486H13.5474Z" fill="#44CCDF"/>
<path d="M16.1432 56.0556C16.0863 56.183 16.0001 56.2812 15.8846 56.3534C15.7691 56.4255 15.6383 56.4593 15.4936 56.4593C15.3366 56.4593 15.2057 56.4362 15.1026 56.3902C14.9979 56.3441 14.9163 56.2735 14.8532 56.1799C14.7916 56.0848 14.7469 55.9666 14.7192 55.8254C14.6931 55.6826 14.6792 55.5169 14.6792 55.3235C14.6792 55.1838 14.69 55.0487 14.71 54.9152C14.73 54.7817 14.77 54.6635 14.8285 54.5607C14.887 54.4578 14.9655 54.3734 15.0641 54.3105C15.1641 54.246 15.2919 54.2153 15.4489 54.2153C15.5829 54.2153 15.6968 54.2384 15.7938 54.2844C15.8908 54.3304 15.9693 54.3934 16.0293 54.4747C16.0894 54.5561 16.134 54.6528 16.1633 54.7648C16.191 54.8768 16.2064 54.9996 16.2064 55.1332V55.4079H14.9609C14.9609 55.5291 14.9686 55.6381 14.9825 55.7364C14.9979 55.8346 15.024 55.9175 15.0641 55.9896C15.1041 56.0602 15.1564 56.1154 15.2242 56.1538C15.2904 56.1922 15.3766 56.2121 15.4828 56.2121C15.5767 56.2121 15.6629 56.1861 15.7399 56.1323C15.8169 56.0786 15.8723 56.0142 15.9077 55.9374L16.1432 56.0556ZM15.9246 55.1731C15.9246 55.0718 15.9185 54.9781 15.9046 54.8922C15.8908 54.8062 15.8677 54.731 15.8338 54.6681C15.7999 54.6052 15.7522 54.5576 15.6922 54.5223C15.6321 54.4885 15.5521 54.4716 15.4551 54.4716C15.3612 54.4716 15.2827 54.4901 15.2211 54.5254C15.1595 54.5607 15.1087 54.6113 15.0733 54.6758C15.0364 54.7402 15.0102 54.8155 14.9963 54.9014C14.9809 54.9874 14.9732 55.081 14.9702 55.1823H15.9277V55.1731H15.9246Z" fill="#44CCDF"/>
<path d="M16.9789 56.5013C16.9635 56.469 16.9481 56.4322 16.9296 56.3923C16.9112 56.3524 16.8958 56.3155 16.8804 56.2833C16.9573 56.2419 17.022 56.1989 17.0713 56.1544C17.1221 56.1099 17.1621 56.05 17.1944 55.9748C17.2252 55.8996 17.2468 55.8029 17.2591 55.6863C17.2714 55.5696 17.276 55.4161 17.276 55.2273V54.2466H18.5753V56.4337H18.2952V54.486H17.5377V55.3732C17.5377 55.5512 17.527 55.7016 17.5039 55.8275C17.4823 55.9533 17.4484 56.0608 17.4038 56.1498C17.3592 56.2388 17.3022 56.3109 17.2298 56.3647C17.1575 56.4184 17.0774 56.4644 16.9789 56.5013Z" fill="#44CCDF"/>
<path d="M19.5254 56.4334V54.2417H19.8056V55.1288H20.2767C20.4106 55.1288 20.523 55.1457 20.6169 55.1795C20.7108 55.2132 20.7862 55.2593 20.8432 55.3176C20.9017 55.3759 20.9433 55.4435 20.9679 55.5202C20.9925 55.597 21.0064 55.6783 21.0064 55.7643C21.0064 55.9669 20.9479 56.128 20.8324 56.2493C20.717 56.3705 20.5291 56.4319 20.272 56.4319H19.5254V56.4334ZM19.801 56.1756H20.2643C20.4306 56.1756 20.5492 56.1372 20.62 56.062C20.6908 55.9868 20.7262 55.8901 20.7262 55.7719C20.7262 55.6691 20.6908 55.577 20.62 55.4987C20.5492 55.4204 20.4291 55.3805 20.2597 55.3805L19.801 55.3852V56.1756Z" fill="#44CCDF"/>
<path d="M22.9431 55.9452C22.9816 55.9682 23.0201 55.9897 23.0586 56.0096C23.0971 56.0296 23.1371 56.0495 23.1787 56.0695C23.1248 56.1938 23.0417 56.2905 22.9293 56.358C22.8169 56.4256 22.6814 56.4593 22.5244 56.4593C22.3581 56.4593 22.2227 56.4302 22.1195 56.3734C22.0148 56.3151 21.9332 56.2353 21.8747 56.134C21.8147 56.0327 21.7747 55.9099 21.7531 55.7671C21.7316 55.6244 21.7192 55.4709 21.7192 55.3051C21.7192 55.1517 21.7331 55.0074 21.7608 54.8754C21.7885 54.7419 21.8347 54.6267 21.8994 54.5285C21.9625 54.4303 22.0472 54.3535 22.1503 54.2983C22.2534 54.2415 22.3812 54.2139 22.5336 54.2139C22.6937 54.2139 22.8277 54.2476 22.937 54.3167C23.0447 54.3842 23.1279 54.4809 23.1833 54.6052L22.9478 54.7434C22.9154 54.6605 22.8631 54.5945 22.7923 54.5454C22.7214 54.4963 22.6368 54.4717 22.5382 54.4717C22.4228 54.4717 22.3289 54.4947 22.2581 54.5408C22.1872 54.5868 22.1334 54.6482 22.0964 54.725C22.0595 54.8017 22.0348 54.8907 22.021 54.992C22.0071 55.0933 22.001 55.1977 22.001 55.3082C22.001 55.4187 22.0071 55.5262 22.0179 55.6336C22.0302 55.741 22.0548 55.8362 22.0933 55.9206C22.1318 56.005 22.1857 56.0741 22.255 56.1247C22.3243 56.1769 22.4166 56.203 22.529 56.203C22.6291 56.203 22.7153 56.1785 22.7876 56.1293C22.8585 56.0802 22.9108 56.0188 22.9431 55.9452Z" fill="#44CCDF"/>
<path d="M24.6396 54.486V56.4337H24.3594V54.486H23.7637V54.2466H25.2416V54.486H24.6396Z" fill="#44CCDF"/>
<path d="M27.4553 55.7952C27.4553 55.9072 27.4368 56.0039 27.3999 56.0837C27.3629 56.1635 27.3137 56.2295 27.2506 56.2817C27.1874 56.3339 27.1151 56.3723 27.032 56.3968C26.9488 56.4214 26.8595 56.4352 26.7656 56.4352H25.9697V54.248H26.7872C27.0012 54.248 27.1613 54.3018 27.2644 54.4077C27.3691 54.5136 27.4214 54.6548 27.4214 54.8298C27.4214 54.9249 27.4014 55.0124 27.3599 55.0937C27.3198 55.1751 27.2459 55.2411 27.1397 55.2917H27.1443C27.2044 55.3117 27.2536 55.3408 27.2937 55.3777C27.3337 55.4145 27.366 55.456 27.3891 55.5005C27.4122 55.545 27.4307 55.5926 27.4399 55.6447C27.4507 55.6939 27.4553 55.7445 27.4553 55.7952ZM27.1397 54.8313C27.1397 54.7254 27.1012 54.6425 27.0227 54.5826C26.9442 54.5228 26.838 54.4936 26.701 54.4936H26.2484V55.1812H26.6917C26.8164 55.1812 26.9211 55.1536 27.0089 55.0999C27.0966 55.0462 27.1397 54.9556 27.1397 54.8313ZM27.1844 55.7844C27.1844 55.6754 27.1505 55.588 27.0843 55.522C27.0181 55.456 26.9073 55.4222 26.7533 55.4222H26.2499V56.1758H26.721C26.8642 56.1758 26.9765 56.1451 27.0597 56.0852C27.1428 56.0254 27.1844 55.9256 27.1844 55.7844Z" fill="#44CCDF"/>
<path d="M29.0578 54.2153C29.2056 54.2153 29.3303 54.2445 29.4288 54.3013C29.5289 54.3596 29.6074 54.4333 29.6675 54.5254C29.7244 54.6021 29.7629 54.7142 29.7829 54.863C29.8029 55.0104 29.8137 55.17 29.8137 55.3419C29.8137 55.3956 29.8122 55.4539 29.8091 55.5169C29.806 55.5813 29.8014 55.6443 29.7937 55.7072C29.786 55.7717 29.7768 55.8315 29.7675 55.8868C29.7568 55.9436 29.746 55.9896 29.7337 56.0295C29.6767 56.1891 29.5843 56.3012 29.455 56.3672C29.3257 56.4316 29.181 56.4654 29.0209 56.4654C28.87 56.4654 28.7453 56.4378 28.6499 56.381C28.5529 56.3242 28.479 56.2521 28.4251 56.163C28.3651 56.0832 28.325 55.9727 28.3019 55.833C28.2804 55.6918 28.2681 55.5322 28.2681 55.3511C28.2681 55.2084 28.2742 55.0764 28.2865 54.9536C28.2989 54.8308 28.3204 54.728 28.3527 54.6451C28.4097 54.5054 28.4975 54.3995 28.6175 54.3258C28.7407 54.2522 28.8869 54.2153 29.0578 54.2153ZM29.0517 54.4716C28.9578 54.4716 28.8731 54.4931 28.7992 54.5361C28.7253 54.5791 28.6683 54.6436 28.6268 54.728C28.5944 54.7863 28.5729 54.8738 28.5652 54.9858C28.556 55.0994 28.5513 55.2314 28.5513 55.3803C28.5513 55.5307 28.559 55.6565 28.5729 55.7578C28.5883 55.8591 28.616 55.939 28.6576 55.9988C28.7376 56.1369 28.8654 56.206 29.0424 56.206C29.1394 56.206 29.2287 56.1815 29.3088 56.1339C29.3888 56.0848 29.4458 56.0096 29.4812 55.9067C29.5043 55.8484 29.5197 55.7655 29.5258 55.6611C29.532 55.5568 29.5351 55.4432 29.5351 55.3189C29.5351 55.1869 29.5304 55.0702 29.5197 54.972C29.5089 54.8738 29.492 54.797 29.4689 54.7448C29.4335 54.6543 29.3796 54.5852 29.3072 54.5392C29.2333 54.4947 29.1487 54.4716 29.0517 54.4716Z" fill="#44CCDF"/>
<path d="M33.4869 56.4335V54.7559H33.473L33.0281 55.4574L32.4139 56.4335H32.146V54.251H32.4262V55.9593H32.4308L32.8911 55.2271C33.0096 55.0384 33.1236 54.8557 33.2329 54.6807C33.3422 54.5058 33.4315 54.363 33.5038 54.251H33.7671V56.4335H33.4869Z" fill="#44CCDF"/>
<path d="M36.4105 54.4993C36.4782 54.3964 36.5583 54.3228 36.6507 54.2798C36.743 54.2368 36.8416 54.2153 36.9478 54.2153C37.0987 54.2153 37.2187 54.246 37.3096 54.309C37.4004 54.3719 37.4681 54.4532 37.5143 54.5545C37.5605 54.6558 37.5898 54.7755 37.6051 54.9091C37.6205 55.0441 37.6267 55.1838 37.6267 55.3281C37.6267 55.4678 37.619 55.6044 37.6021 55.7379C37.5851 55.873 37.5528 55.9927 37.502 56.1001C37.4512 56.206 37.3804 56.292 37.2865 56.358C37.1926 56.4224 37.0694 56.4562 36.9155 56.4562C36.8031 56.4562 36.7076 56.4347 36.6276 56.3902C36.5475 56.3457 36.4752 56.2828 36.4105 56.1999H36.4013V57.3264H36.1211V54.2476H36.4013V54.4962C36.4044 54.4947 36.4074 54.4962 36.4105 54.4993ZM36.8616 56.1891C36.9709 56.1891 37.0571 56.1661 37.1202 56.1185C37.1833 56.0709 37.2311 56.0065 37.2649 55.9267C37.2972 55.8469 37.3188 55.7548 37.3296 55.6535C37.3404 55.5506 37.345 55.4447 37.345 55.3358C37.345 55.2206 37.3404 55.1101 37.3296 55.0042C37.3188 54.8983 37.2972 54.8078 37.2649 54.728C37.2326 54.6482 37.1849 54.5868 37.1233 54.5407C37.0617 54.4947 36.977 54.4716 36.8708 54.4716C36.7554 54.4716 36.6661 54.4993 36.6029 54.5545C36.5398 54.6098 36.4921 54.6788 36.4629 54.7633C36.4336 54.8477 36.4151 54.9398 36.409 55.0411C36.4028 55.1424 36.3997 55.2375 36.3997 55.3296C36.3997 55.4186 36.4028 55.5138 36.409 55.6151C36.4151 55.7164 36.4336 55.8085 36.4644 55.8929C36.4952 55.9773 36.5414 56.0479 36.6014 56.1047C36.663 56.1615 36.7507 56.1891 36.8616 56.1891Z" fill="#44CCDF"/>
<path d="M39.9436 56.0556C39.8866 56.183 39.8004 56.2812 39.6849 56.3534C39.5695 56.4255 39.4386 56.4593 39.2939 56.4593C39.1369 56.4593 39.006 56.4362 38.9029 56.3902C38.7982 56.3441 38.7166 56.2735 38.6535 56.1799C38.5919 56.0848 38.5472 55.9666 38.5195 55.8254C38.4933 55.6826 38.4795 55.5169 38.4795 55.3235C38.4795 55.1838 38.4903 55.0487 38.5103 54.9152C38.5303 54.7817 38.5703 54.6635 38.6288 54.5607C38.6873 54.4578 38.7658 54.3734 38.8644 54.3105C38.9644 54.246 39.0922 54.2153 39.2492 54.2153C39.3832 54.2153 39.4971 54.2384 39.5941 54.2844C39.6911 54.3304 39.7696 54.3934 39.8296 54.4747C39.8897 54.5561 39.9343 54.6528 39.9636 54.7648C39.9913 54.8768 40.0067 54.9996 40.0067 55.1332V55.4079H38.7612C38.7612 55.5291 38.7689 55.6381 38.7828 55.7364C38.7982 55.8346 38.8243 55.9175 38.8644 55.9896C38.9044 56.0602 38.9567 56.1154 39.0245 56.1538C39.0907 56.1922 39.1769 56.2121 39.2831 56.2121C39.377 56.2121 39.4632 56.1861 39.5402 56.1323C39.6172 56.0786 39.6726 56.0142 39.708 55.9374L39.9436 56.0556ZM39.7265 55.1731C39.7265 55.0718 39.7203 54.9781 39.7065 54.8922C39.6926 54.8062 39.6695 54.731 39.6357 54.6681C39.6018 54.6052 39.5541 54.5576 39.494 54.5223C39.434 54.4885 39.3539 54.4716 39.2569 54.4716C39.163 54.4716 39.0845 54.4901 39.0229 54.5254C38.9614 54.5607 38.9106 54.6113 38.8751 54.6758C38.8382 54.7402 38.812 54.8155 38.7982 54.9014C38.7828 54.9874 38.7751 55.081 38.772 55.1823H39.7296V55.1731H39.7265Z" fill="#44CCDF"/>
<path d="M42.5696 56.4333V54.8263L42.3557 55.2561C42.3172 55.3298 42.2787 55.4034 42.2402 55.4786C42.2017 55.5523 42.1648 55.6229 42.1293 55.692C42.0939 55.7595 42.0616 55.8224 42.0339 55.8808C42.0062 55.9391 41.9831 55.9851 41.9646 56.0204H41.7783C41.7275 55.9253 41.6783 55.8301 41.629 55.7319C41.5798 55.6337 41.5305 55.5385 41.4797 55.4433L41.1764 54.8401H41.1718V56.4333H40.8916V54.2462H41.1626C41.2303 54.3797 41.298 54.5117 41.3658 54.6406C41.432 54.7711 41.4997 54.9031 41.569 55.0351L41.8753 55.6429L42.2094 54.9767C42.2802 54.834 42.351 54.6974 42.4188 54.5669C42.4865 54.4349 42.5419 54.3275 42.5835 54.2446H42.8498V56.4318H42.5696V56.4333Z" fill="#44CCDF"/>
<path d="M44.5232 54.2153C44.6709 54.2153 44.7956 54.2445 44.8942 54.3013C44.9942 54.3596 45.0727 54.4333 45.1328 54.5254C45.1897 54.6021 45.2282 54.7142 45.2482 54.863C45.2683 55.0104 45.279 55.17 45.279 55.3419C45.279 55.3956 45.2775 55.4539 45.2744 55.5169C45.2713 55.5813 45.2667 55.6443 45.259 55.7072C45.2513 55.7717 45.2421 55.8315 45.2329 55.8868C45.2221 55.9436 45.2113 55.9896 45.199 56.0295C45.142 56.1891 45.0497 56.3012 44.9203 56.3672C44.791 56.4316 44.6463 56.4654 44.4862 56.4654C44.3353 56.4654 44.2106 56.4378 44.1152 56.381C44.0182 56.3242 43.9443 56.2521 43.8904 56.163C43.8304 56.0832 43.7904 55.9727 43.7673 55.833C43.7457 55.6918 43.7334 55.5322 43.7334 55.3511C43.7334 55.2084 43.7396 55.0764 43.7519 54.9536C43.7642 54.8308 43.7857 54.728 43.8181 54.6451C43.875 54.5054 43.9628 54.3995 44.0829 54.3258C44.206 54.2522 44.3507 54.2153 44.5232 54.2153ZM44.517 54.4716C44.4231 54.4716 44.3384 54.4931 44.2645 54.5361C44.1906 54.5791 44.1337 54.6436 44.0921 54.728C44.0598 54.7863 44.0382 54.8738 44.0305 54.9858C44.0213 55.0994 44.0167 55.2314 44.0167 55.3803C44.0167 55.5307 44.0244 55.6565 44.0382 55.7578C44.0536 55.8591 44.0813 55.939 44.1229 55.9988C44.2029 56.1369 44.3307 56.206 44.5078 56.206C44.6047 56.206 44.694 56.1815 44.7741 56.1339C44.8541 56.0848 44.9111 56.0096 44.9465 55.9067C44.9696 55.8484 44.985 55.7655 44.9912 55.6611C44.9973 55.5568 45.0004 55.4432 45.0004 55.3189C45.0004 55.1869 44.9958 55.0702 44.985 54.972C44.9742 54.8738 44.9573 54.797 44.9342 54.7448C44.8988 54.6543 44.8449 54.5852 44.7725 54.5392C44.6986 54.4947 44.614 54.4716 44.517 54.4716Z" fill="#44CCDF"/>
<path d="M47.3946 56.4334V55.4358H46.474V56.4334H46.1938V54.2417H46.474V55.1994H47.3946V54.2417H47.6748V56.4334H47.3946Z" fill="#44CCDF"/>
<path d="M49.2822 54.486V56.4337H49.002V54.486H48.4062V54.2466H49.8842V54.486H49.2822Z" fill="#44CCDF"/>
<path d="M25.7924 0.717012C25.7124 0.695524 25.6339 0.692455 25.5553 0.698594C25.4784 0.692455 25.3983 0.695524 25.3183 0.717012L12.5098 4.08905V29.1315C12.5098 29.5137 12.8192 29.8222 13.2025 29.8222C13.281 29.8222 13.3565 29.8068 13.4273 29.7822L25.5553 27.6197L37.6834 29.7822C37.7542 29.8068 37.8281 29.8222 37.9082 29.8222C38.2915 29.8222 38.6009 29.5137 38.6009 29.1315V4.08905L25.7924 0.717012ZM37.2154 28.295L29.4918 26.9182L33.1173 26.2721C33.4945 26.2045 33.7454 25.8454 33.6777 25.4709C33.6099 25.0964 33.2512 24.8447 32.874 24.9122L25.5569 26.2168L18.2397 24.9122C17.8641 24.8447 17.5038 25.0949 17.4361 25.4709C17.3684 25.8469 17.6193 26.2045 17.9965 26.2721L21.622 26.9182L13.8984 28.295V5.15269L25.5584 2.08302L37.2185 5.15269V28.295H37.2154Z" fill="#44CCDF"/>
</svg>
